<?xml version="1.0" encoding="utf-8"?>
<!-- Generator: Adobe Illustrator 21.0.0, SVG Export Plug-In . SVG Version: 6.00 Build 0)  -->
<!DOCTYPE svg PUBLIC "-//W3C//DTD SVG 1.1//EN" "http://www.w3.org/Graphics/SVG/1.1/DTD/svg11.dtd">
<svg version="1.1" id="Layer_1" xmlns="http://www.w3.org/2000/svg" xmlns:xlink="http://www.w3.org/1999/xlink" x="0px" y="0px"
	 viewBox="0 0 861 245" style="enable-background:new 0 0 861 245;" xml:space="preserve">
<style type="text/css">
	.st0{fill-rule:evenodd;clip-rule:evenodd;fill:#FFFFFF;}
	.st1{fill:#FFFFFF;}
</style>
<g>
	<g>
		<path class="st0" d="M127,48.8H93.6v17.1h-0.5C84.7,51,71.8,45.3,54.9,45.3C19.1,45.3,0,75.5,0,108.7C0,143.8,16.3,173,54.7,173
			c15.3,0,30.7-6.4,38.4-19.8h0.5v16.8c0.3,18.3-8.7,31.7-28.2,31.7c-12.4,0-23-4.5-26.2-17.6H4.2c1.7,29.2,31.2,41.1,56.4,41.1
			c58.9,0,66.3-35.6,66.3-56.7V48.8z M63.6,146.5c-21.5,0-28.5-20-28.5-38.4c0-19.1,8.7-36.4,28.5-36.4c22.8,0,29.9,18.6,29.9,39.4
			C93.6,129.5,83.7,146.5,63.6,146.5z"/>
		<path class="st0" d="M218.6,127.2c0,7.7-1,29.4-28.5,29.4c-11.4,0-21.5-3.2-21.5-16.3c0-12.9,9.9-16.6,20.8-18.8
			c10.9-2,23.3-2.2,29.2-7.4V127.2z M172.6,88.1c1.2-13.9,9.9-19.3,23.3-19.3c12.4,0,22.8,2.2,22.8,17.3c0,14.4-20,13.6-41.6,16.8
			c-21.8,3-43.6,9.9-43.6,38.9c0,26.2,19.3,38.4,43.6,38.4c15.6,0,31.9-4.2,43.1-15.8c0.2,4.2,1.2,8.4,2.5,12.4h35.6
			c-3.2-5.2-4.5-16.8-4.5-28.5V81.7c0-30.7-30.7-36.4-56.2-36.4c-28.7,0-58.2,9.9-60.1,42.8H172.6z"/>
		<rect x="262.1" class="st0" width="35.1" height="176.7"/>
		<path class="st0" d="M306,176.7h35.1v-128H306V176.7z M341.1,0H306v29h35.1V0z"/>
		<path class="st0" d="M350,176.7h33.4v-16.3h0.5c7.7,14.1,23.3,19.8,42.1,19.8c25.5,0,53-20.5,53-67.6c0-46.8-27.5-67.3-53-67.3
			c-15.8,0-31.7,5.9-40.3,19.1h-0.5V0H350V176.7z M443.8,112.9c0,21.3-9.2,40.8-29.9,40.8c-20.8,0-30-19.5-30-40.8
			c0-21.5,9.2-41.1,30-41.1C434.7,71.8,443.8,91.3,443.8,112.9z"/>
		<path class="st0" d="M614,121.3c2.5-39.4-18.6-76-62.1-76c-38.9,0-65.3,29.2-65.3,67.6c0,39.6,25,67.3,65.3,67.3
			c29,0,50-12.9,59.9-43.1h-30.9c-2.2,7.9-13.6,16.6-27.7,16.6c-19.5,0-30.4-10.1-31.4-32.4H614z M521.7,99
			c0.5-9.9,6.9-27.2,29.2-27.2c17.1,0,24.7,9.4,28,27.2H521.7z"/>
		<rect x="621.4" class="st0" width="35.2" height="176.7"/>
		<rect x="665.2" class="st0" width="35.1" height="176.7"/>
		<path class="st0" d="M707.4,121.3c-2.5-39.4,18.6-76,62.1-76c38.9,0,65.3,29.2,65.3,67.6c0,39.6-25,67.3-65.3,67.3
			c-29,0-50-12.9-59.9-43.1h30.9c2.2,7.9,13.6,16.6,27.7,16.6c19.6,0,30.4-10.2,31.4-32.4H707.4z M799.7,99.1
			c-0.5-9.9-6.9-27.2-29.2-27.2c-17.1,0-24.8,9.4-28,27.2H799.7z"/>
	</g>
	<g>
		<path class="st1" d="M412.8,220.3c0,7.1-2.2,12.9-10.1,12.9c-2.7,0-5.1-0.9-7.7-2.5l-0.7,2h-1.9v-37.1h3.5v13.9
			c2.1-1.4,4.6-2,6.9-2C410.6,207.5,412.8,213.2,412.8,220.3z M395.7,212.1v16.4c1.9,1,3.7,1.6,6.9,1.6c5.9,0,6.7-4.9,6.7-9.8
			c0-4.9-0.7-9.8-6.7-9.8C399.4,210.5,397.6,211.1,395.7,212.1z"/>
		<path class="st1" d="M419.5,208l6.9,20.3l6.9-20.3h4L423,245.1h-3.7l5.6-13l-9.4-24.1H419.5z"/>
		<path class="st1" d="M470.4,220.3c0,7.1-2.2,12.9-10.1,12.9c-2.7,0-5.1-0.9-7.7-2.5l-0.7,2h-1.9v-37.1h3.5v13.9
			c2.1-1.4,4.6-2,6.9-2C468.2,207.5,470.4,213.2,470.4,220.3z M453.4,212.1v16.4c1.9,1,3.7,1.6,6.9,1.6c5.9,0,6.7-4.9,6.7-9.8
			c0-4.9-0.7-9.8-6.7-9.8C457.1,210.5,455.3,211.1,453.4,212.1z"/>
		<path class="st1" d="M490,210.9c-0.7-0.2-1.7-0.4-3-0.4c-3.4,0-5.3,0.5-7.2,1.6v20.6h-3.5V208h1.9l0.7,2.1c2.3-1.7,5.2-2.6,8-2.6
			c1.1,0,2,0.1,3,0.2V210.9z"/>
		<path class="st1" d="M502,210.5c-3.3,0-5.5,0.6-7.4,1.2v-3c2.2-0.9,5-1.3,7.4-1.3c7.4,0,9.3,3.4,9.3,8.3v16.9h-1.9l-0.7-2
			c-2.2,1.6-5,2.5-7.5,2.5c-6.5,0-8.7-3.8-8.7-8c0-4.2,2.3-7.3,8.8-7.7l6.5-0.4v-1.4C507.9,212.1,506.6,210.5,502,210.5z
			 M501.2,220.2c-3.5,0.3-5,2.2-5,5c0,2.2,0.5,4.9,5.2,4.9c2.7,0,4.5-0.7,6.6-2v-8.6L501.2,220.2z"/>
		<path class="st1" d="M516.4,232.7v-2.2l14.5-19.6h-13.7V208h18.1v2.2l-14.5,19.6h15v2.9H516.4z"/>
		<path class="st1" d="M542.8,198.1c1.4,0,2.5,1.1,2.5,2.5c0,1.4-1.1,2.5-2.5,2.5s-2.5-1.1-2.5-2.5
			C540.3,199.2,541.4,198.1,542.8,198.1z M541.1,227.7V208h3.4v20.2c0,1.7,0.5,2.2,2.1,2.2v2.8C543,233.2,541.1,231.7,541.1,227.7z"
			/>
		<path class="st1" d="M553,227.7v-32.1h3.4v32.5c0,1.7,0.5,2.2,2.1,2.2v2.8C554.9,233.2,553,231.7,553,227.7z"/>
		<path class="st1" d="M566.6,198.1c1.4,0,2.5,1.1,2.5,2.5c0,1.4-1.1,2.5-2.5,2.5c-1.4,0-2.5-1.1-2.5-2.5
			C564.1,199.2,565.2,198.1,566.6,198.1z M564.9,227.7V208h3.4v20.2c0,1.7,0.5,2.2,2.1,2.2v2.8C566.8,233.2,564.9,231.7,564.9,227.7
			z"/>
		<path class="st1" d="M584.7,210.5c-3.3,0-5.5,0.6-7.4,1.2v-3c2.2-0.9,5-1.3,7.4-1.3c7.4,0,9.3,3.4,9.3,8.3v16.9h-1.9l-0.7-2
			c-2.2,1.6-5,2.5-7.5,2.5c-6.5,0-8.7-3.8-8.7-8c0-4.2,2.3-7.3,8.8-7.7l6.5-0.4v-1.4C590.6,212.1,589.3,210.5,584.7,210.5z
			 M583.8,220.2c-3.5,0.3-5,2.2-5,5c0,2.2,0.5,4.9,5.2,4.9c2.7,0,4.5-0.7,6.6-2v-8.6L583.8,220.2z"/>
		<path class="st1" d="M615.5,214.7c0-3.2-1.9-4.2-4.9-4.2c-3.2,0-4.8,0.5-6.7,1.6v20.6h-3.5V208h1.9l0.7,2.1
			c2.3-1.7,4.8-2.6,7.5-2.6c5.9,0,8.4,2.7,8.4,7.4v17.8h-3.5V214.7z"/>
		<path class="st1" d="M650.2,209.5v-13.9h3.5v37.1h-1.9l-0.7-2c-2.6,1.6-5,2.5-7.7,2.5c-8,0-10.1-5.7-10.1-12.9
			c0-7.1,2.2-12.9,10.1-12.9C645.5,207.5,648.1,208.1,650.2,209.5z M636.6,220.3c0,4.9,0.7,9.8,6.7,9.8c3.2,0,5-0.5,6.9-1.6v-16.4
			c-1.9-1-3.7-1.6-6.9-1.6C637.3,210.5,636.6,215.4,636.6,220.3z"/>
		<path class="st1" d="M670,207.5c8.4,0,9.4,5.7,9.4,12.9v1.6h-16.3c0.2,4.3,1.3,8.2,6.9,8.2c3.6,0,5.7-0.4,8.2-1.4v3
			c-2.8,1.2-5.7,1.5-8.2,1.5c-8.4,0-10.4-5.7-10.4-12.9C659.6,213.2,661.6,207.5,670,207.5z M663.1,219.1h12.9
			c0-4.4-0.2-8.6-5.9-8.6C664.2,210.5,663.2,214.6,663.1,219.1z"/>
		<path class="st1" d="M693.6,218.5c7,0.6,8.7,3,8.7,7.1c0,3.8-2.4,7.6-9.9,7.6c-2.4,0-5.8-0.6-7.4-1.2v-3c1.5,0.5,3.9,1.1,7.4,1.1
			c5.1,0,6.5-2.2,6.5-4.5c0-2.3-0.7-3.9-5.6-4.3c-7.2-0.6-8.7-3.2-8.7-6.6c0-3.5,2.3-7.3,9.2-7.3c2.3,0,4.9,0.3,7.1,1.2v3
			c-1.9-0.6-3.9-1.1-7.2-1.1c-4.9,0-5.9,1.8-5.9,4.3C687.9,217,688.8,218.1,693.6,218.5z"/>
		<path class="st1" d="M710.6,198.1c1.4,0,2.5,1.1,2.5,2.5c0,1.4-1.1,2.5-2.5,2.5c-1.4,0-2.5-1.1-2.5-2.5
			C708.1,199.2,709.2,198.1,710.6,198.1z M708.9,227.7V208h3.4v20.2c0,1.7,0.5,2.2,2.1,2.2v2.8C710.7,233.2,708.9,231.7,708.9,227.7
			z"/>
		<path class="st1" d="M725.4,225.8c-0.5,0.5-0.9,1.2-0.9,1.8c0,1.2,0.6,1.8,1.9,1.9l8.4,1c4.6,0.5,6.8,2.3,6.8,6.6
			c0,6-6,8.4-12.9,8.4c-6.9,0-11.1-2-11.1-7.5c0-3.4,2.3-5.6,5.1-6.5v0c-0.9-0.6-1.6-1.6-1.6-3.3c0-1.4,0.8-2.5,1.9-3.4
			c-3-1.6-4-4.6-4-8.1c0-5.1,2.2-9.3,9.6-9.3c1.5,0,2.8,0.2,4,0.5h8.4v1.9l-4.2,1.2c1,1.6,1.4,3.6,1.4,5.7c0,5.1-2.2,9.3-9.6,9.3
			C727.5,226.1,726.4,226,725.4,225.8z M726.9,232.4c-3.3,0.7-6,2.3-6,5.4c0,3.7,2.8,4.7,7.9,4.7c4.9,0,9.6-1.2,9.6-5.4
			c0-2.5-1.2-3.5-4.2-3.9L726.9,232.4z M735.1,216.8c0-3.3-0.6-6.3-6.4-6.3c-5.8,0-6.4,3-6.4,6.3c0,3.3,0.6,6.3,6.4,6.3
			C734.5,223.1,735.1,220,735.1,216.8z"/>
		<path class="st1" d="M760.3,214.7c0-3.2-1.9-4.2-4.9-4.2c-3.2,0-4.8,0.5-6.7,1.6v20.6h-3.5V208h1.9l0.7,2.1
			c2.3-1.7,4.8-2.6,7.5-2.6c5.9,0,8.4,2.7,8.4,7.4v17.8h-3.5V214.7z"/>
		<path class="st1" d="M779.8,207.5c8.4,0,9.4,5.7,9.4,12.9v1.6h-16.3c0.2,4.3,1.3,8.2,6.9,8.2c3.6,0,5.7-0.4,8.2-1.4v3
			c-2.8,1.2-5.7,1.5-8.2,1.5c-8.4,0-10.4-5.7-10.4-12.9C769.4,213.2,771.5,207.5,779.8,207.5z M772.9,219.1h12.9
			c0-4.4-0.2-8.6-5.9-8.6C774.1,210.5,773,214.6,772.9,219.1z"/>
		<path class="st1" d="M808.8,210.9c-0.7-0.2-1.7-0.4-3-0.4c-3.4,0-5.3,0.5-7.2,1.6v20.6h-3.5V208h1.9l0.7,2.1
			c2.3-1.7,5.2-2.6,8-2.6c1.1,0,2,0.1,3,0.2V210.9z"/>
		<path class="st1" d="M821.4,218.5c7,0.6,8.7,3,8.7,7.1c0,3.8-2.4,7.6-9.9,7.6c-2.4,0-5.8-0.6-7.4-1.2v-3c1.5,0.5,3.9,1.1,7.4,1.1
			c5.1,0,6.5-2.2,6.5-4.5c0-2.3-0.7-3.9-5.6-4.3c-7.2-0.6-8.7-3.2-8.7-6.6c0-3.5,2.3-7.3,9.2-7.3c2.3,0,4.9,0.3,7.1,1.2v3
			c-1.9-0.6-3.9-1.1-7.2-1.1c-4.9,0-5.9,1.8-5.9,4.3C815.7,217,816.6,218.1,821.4,218.5z"/>
	</g>
	<g>
		<path class="st1" d="M845.9,43.9c2.3,0,4.4,0.6,6.6,1.7c2.1,1.2,3.8,2.8,5,5c1.2,2.1,1.8,4.4,1.8,6.7c0,2.3-0.6,4.5-1.8,6.7
			c-1.2,2.1-2.8,3.8-5,5c-2.1,1.2-4.3,1.8-6.7,1.8c-2.3,0-4.5-0.6-6.7-1.8c-2.1-1.2-3.8-2.8-5-5c-1.2-2.1-1.8-4.4-1.8-6.7
			c0-2.3,0.6-4.6,1.8-6.7c1.2-2.1,2.9-3.8,5-5C841.5,44.5,843.7,43.9,845.9,43.9z M845.9,46.1c-1.9,0-3.7,0.5-5.5,1.4
			c-1.8,1-3.2,2.3-4.2,4.1c-1,1.8-1.5,3.7-1.5,5.6c0,1.9,0.5,3.8,1.5,5.6c1,1.8,2.4,3.2,4.1,4.1c1.8,1,3.6,1.5,5.6,1.5
			c1.9,0,3.8-0.5,5.6-1.5c1.8-1,3.2-2.4,4.1-4.1c1-1.8,1.5-3.6,1.5-5.6c0-1.9-0.5-3.8-1.5-5.6c-1-1.8-2.4-3.2-4.2-4.1
			C849.6,46.6,847.8,46.1,845.9,46.1z M840,64.7V50.3h5c1.7,0,2.9,0.1,3.7,0.4c0.8,0.3,1.4,0.7,1.8,1.4c0.5,0.7,0.7,1.4,0.7,2.1
			c0,1.1-0.4,2-1.1,2.8c-0.8,0.8-1.8,1.2-3,1.3c0.5,0.2,0.9,0.5,1.2,0.8c0.6,0.6,1.3,1.5,2.1,2.9l1.8,2.8h-2.8l-1.3-2.3
			c-1-1.8-1.8-2.9-2.4-3.4c-0.4-0.3-1-0.5-1.9-0.5h-1.4v6.1H840z M842.4,56.6h2.8c1.4,0,2.3-0.2,2.8-0.6c0.5-0.4,0.7-0.9,0.7-1.6
			c0-0.4-0.1-0.8-0.4-1.1c-0.2-0.3-0.6-0.6-1-0.8c-0.4-0.2-1.2-0.2-2.3-0.2h-2.6V56.6z"/>
	</g>
</g>
</svg>
